<svg xmlns="http://www.w3.org/2000/svg" viewBox="0 0 128 128">
  <!-- 배경 -->
  <rect x="0" y="0" width="128" height="128" rx="28" fill="#f3e3c6"/>

  <g transform="rotate(-5 64 68)">
    <!-- 메모지 (접힌 모서리) -->
    <path d="M36 30 L84 30 L102 48 L102 98 Q102 108 92 108 L36 108 Q26 108 26 98 L26 40 Q26 30 36 30 Z"
          fill="#ffdf73" stroke="#e9c24c" stroke-width="2"/>
    <path d="M84 30 L102 48 L84 48 Z" fill="#e7bd45"/>

    <!-- 미니멀 양털 -->
    <g fill="#ffffff" stroke="#e0cba2" stroke-width="2">
      <circle cx="56" cy="54" r="12"/>
      <circle cx="72" cy="54" r="12"/>
      <circle cx="46" cy="66" r="11"/>
      <circle cx="82" cy="66" r="11"/>
      <circle cx="64" cy="64" r="16"/>
    </g>

    <!-- 눈 -->
    <circle cx="57" cy="65" r="3.8" fill="#3b2c22"/>
    <circle cx="71" cy="65" r="3.8" fill="#3b2c22"/>
    <!-- 입 -->
    <path d="M60 74 q4 4 8 0" fill="none" stroke="#8a6a50" stroke-width="2.2" stroke-linecap="round"/>
  </g>
</svg>
