<svg xmlns="http://www.w3.org/2000/svg" viewBox="0 0 760 306"
     font-family="-apple-system, BlinkMacSystemFont, 'Apple SD Gothic Neo', 'Malgun Gothic', sans-serif">
  <defs>
    <marker id="arrow4nf" viewBox="0 0 10 10" refX="9" refY="5" markerWidth="7" markerHeight="7" orient="auto-start-reverse">
      <path d="M 0 0 L 10 5 L 0 10 z" fill="#5b5fb0"/>
    </marker>
  </defs>

  <text x="30" y="24" font-size="13" font-weight="700" fill="#1f2330">한 테이블에 담은 교재 목록과 교수 목록</text>

  <!-- 왼쪽: 한 테이블 -->
  <text x="30" y="46" font-size="12.5" font-weight="700" fill="#d9480f">✕ 조합이 곱해져 저장됨</text>

  <rect x="30" y="56" width="110" height="30" fill="#eef0ff" stroke="#4f46e5" stroke-width="1.4"/>
  <rect x="140" y="56" width="90" height="30" fill="#eef0ff" stroke="#4f46e5" stroke-width="1.4"/>
  <rect x="230" y="56" width="90" height="30" fill="#eef0ff" stroke="#4f46e5" stroke-width="1.4"/>
  <text x="85" y="76" text-anchor="middle" font-size="12.5" font-weight="700" fill="#4f46e5">과목</text>
  <text x="185" y="76" text-anchor="middle" font-size="12.5" font-weight="700" fill="#4f46e5">교재</text>
  <text x="275" y="76" text-anchor="middle" font-size="12.5" font-weight="700" fill="#4f46e5">교수</text>

  <rect x="30" y="86" width="110" height="28" fill="#ffffff" stroke="#cfd0db" stroke-width="1"/>
  <rect x="140" y="86" width="90" height="28" fill="#fff4ec" stroke="#cfd0db" stroke-width="1"/>
  <rect x="230" y="86" width="90" height="28" fill="#fff4ec" stroke="#cfd0db" stroke-width="1"/>
  <text x="85" y="105" text-anchor="middle" font-size="12" fill="#1f2330">데이터베이스</text>
  <text x="185" y="105" text-anchor="middle" font-size="12" fill="#1f2330">교재A</text>
  <text x="275" y="105" text-anchor="middle" font-size="12" fill="#1f2330">박교수</text>

  <rect x="30" y="114" width="110" height="28" fill="#ffffff" stroke="#cfd0db" stroke-width="1"/>
  <rect x="140" y="114" width="90" height="28" fill="#fff4ec" stroke="#cfd0db" stroke-width="1"/>
  <rect x="230" y="114" width="90" height="28" fill="#fff4ec" stroke="#cfd0db" stroke-width="1"/>
  <text x="85" y="133" text-anchor="middle" font-size="12" fill="#1f2330">데이터베이스</text>
  <text x="185" y="133" text-anchor="middle" font-size="12" fill="#1f2330">교재A</text>
  <text x="275" y="133" text-anchor="middle" font-size="12" fill="#1f2330">정교수</text>

  <rect x="30" y="142" width="110" height="28" fill="#ffffff" stroke="#cfd0db" stroke-width="1"/>
  <rect x="140" y="142" width="90" height="28" fill="#fff4ec" stroke="#cfd0db" stroke-width="1"/>
  <rect x="230" y="142" width="90" height="28" fill="#fff4ec" stroke="#cfd0db" stroke-width="1"/>
  <text x="85" y="161" text-anchor="middle" font-size="12" fill="#1f2330">데이터베이스</text>
  <text x="185" y="161" text-anchor="middle" font-size="12" fill="#1f2330">교재B</text>
  <text x="275" y="161" text-anchor="middle" font-size="12" fill="#1f2330">박교수</text>

  <rect x="30" y="170" width="110" height="28" fill="#ffffff" stroke="#cfd0db" stroke-width="1"/>
  <rect x="140" y="170" width="90" height="28" fill="#fff4ec" stroke="#cfd0db" stroke-width="1"/>
  <rect x="230" y="170" width="90" height="28" fill="#fff4ec" stroke="#cfd0db" stroke-width="1"/>
  <text x="85" y="189" text-anchor="middle" font-size="12" fill="#1f2330">데이터베이스</text>
  <text x="185" y="189" text-anchor="middle" font-size="12" fill="#1f2330">교재B</text>
  <text x="275" y="189" text-anchor="middle" font-size="12" fill="#1f2330">정교수</text>

  <text x="30" y="220" font-size="12.5" font-weight="600" fill="#d9480f">교재 2권과 교수 2명이 네 행으로 저장됩니다</text>
  <text x="30" y="240" font-size="12" fill="#80828f">교재를 한 권 더 넣으려면 두 행을 넣어야 합니다</text>

  <!-- 가운데 화살표 -->
  <path d="M 336 128 L 400 128" stroke="#5b5fb0" stroke-width="2" fill="none" marker-end="url(#arrow4nf)"/>
  <text x="368" y="102" text-anchor="middle" font-size="12" font-weight="700" fill="#5b5fb0">과목 ↠ 교재</text>
  <text x="368" y="118" text-anchor="middle" font-size="12" font-weight="700" fill="#5b5fb0">과목 ↠ 교수</text>
  <text x="368" y="152" text-anchor="middle" font-size="12" fill="#5b5fb0">기준으로 분리</text>

  <!-- 오른쪽: 두 테이블 -->
  <text x="420" y="46" font-size="12.5" font-weight="700" fill="#2f9e44">✓ 관계마다 테이블을 나눔</text>

  <rect x="420" y="56" width="110" height="30" fill="#eef0ff" stroke="#4f46e5" stroke-width="1.4"/>
  <rect x="530" y="56" width="90" height="30" fill="#eef0ff" stroke="#4f46e5" stroke-width="1.4"/>
  <text x="475" y="76" text-anchor="middle" font-size="12.5" font-weight="700" fill="#4f46e5">과목</text>
  <text x="575" y="76" text-anchor="middle" font-size="12.5" font-weight="700" fill="#4f46e5">교재</text>

  <rect x="420" y="86" width="110" height="28" fill="#ffffff" stroke="#cfd0db" stroke-width="1"/>
  <rect x="530" y="86" width="90" height="28" fill="#eef9f0" stroke="#cfd0db" stroke-width="1"/>
  <text x="475" y="105" text-anchor="middle" font-size="12" fill="#1f2330">데이터베이스</text>
  <text x="575" y="105" text-anchor="middle" font-size="12" fill="#1f2330">교재A</text>

  <rect x="420" y="114" width="110" height="28" fill="#ffffff" stroke="#cfd0db" stroke-width="1"/>
  <rect x="530" y="114" width="90" height="28" fill="#eef9f0" stroke="#cfd0db" stroke-width="1"/>
  <text x="475" y="133" text-anchor="middle" font-size="12" fill="#1f2330">데이터베이스</text>
  <text x="575" y="133" text-anchor="middle" font-size="12" fill="#1f2330">교재B</text>

  <rect x="420" y="162" width="110" height="30" fill="#eef0ff" stroke="#4f46e5" stroke-width="1.4"/>
  <rect x="530" y="162" width="90" height="30" fill="#eef0ff" stroke="#4f46e5" stroke-width="1.4"/>
  <text x="475" y="182" text-anchor="middle" font-size="12.5" font-weight="700" fill="#4f46e5">과목</text>
  <text x="575" y="182" text-anchor="middle" font-size="12.5" font-weight="700" fill="#4f46e5">교수</text>

  <rect x="420" y="192" width="110" height="28" fill="#ffffff" stroke="#cfd0db" stroke-width="1"/>
  <rect x="530" y="192" width="90" height="28" fill="#eef9f0" stroke="#cfd0db" stroke-width="1"/>
  <text x="475" y="211" text-anchor="middle" font-size="12" fill="#1f2330">데이터베이스</text>
  <text x="575" y="211" text-anchor="middle" font-size="12" fill="#1f2330">박교수</text>

  <rect x="420" y="220" width="110" height="28" fill="#ffffff" stroke="#cfd0db" stroke-width="1"/>
  <rect x="530" y="220" width="90" height="28" fill="#eef9f0" stroke="#cfd0db" stroke-width="1"/>
  <text x="475" y="239" text-anchor="middle" font-size="12" fill="#1f2330">데이터베이스</text>
  <text x="575" y="239" text-anchor="middle" font-size="12" fill="#1f2330">정교수</text>

  <text x="420" y="270" font-size="12.5" font-weight="600" fill="#2f9e44">두 행과 두 행으로 나뉩니다</text>
  <text x="420" y="290" font-size="12" fill="#80828f">교재를 한 권 더 넣으면 한 행만 추가합니다</text>

</svg>
